<svg id="Layer_1" data-name="Layer 1" xmlns="http://www.w3.org/2000/svg" viewBox="0 0 340.72 342.09"><defs><style>.cls-1{fill:#231f20;stroke:#231f20;stroke-linecap:round;stroke-miterlimit:10;}</style></defs><title>fan</title><path class="cls-1" d="M250,152.93A97.07,97.07,0,1,0,347.07,250,97.07,97.07,0,0,0,250,152.93Zm0,161A63.93,63.93,0,1,1,313.93,250,63.93,63.93,0,0,1,250,313.93Z" transform="translate(-79.64 -78.96)"/><circle class="cls-1" cx="170.36" cy="171.04" r="46"/><path class="cls-1" d="M257.18,153.19c0-19.72-34.34-71-34.34-71S277.74,68.64,333.33,102c6.67,4-1,66.69-18.08,76.13C301.41,185.75,257.17,164.33,257.18,153.19Z" transform="translate(-79.64 -78.96)"/><path class="cls-1" d="M169.75,195.38c-17.07-9.88-78.68-5.77-78.68-5.77s15.74-54.31,72.43-85.78c6.8-3.77,57.28,34.17,56.88,53.72C220.06,173.35,179.39,201,169.75,195.38Z" transform="translate(-79.64 -78.96)"/><path class="cls-1" d="M162.57,292.19c-17.09,9.85-44.33,65.25-44.33,65.25S79.07,316.65,80.16,251.83c0.13-7.77,58.23-32.52,75-22.4C168.65,237.6,172.23,286.63,162.57,292.19Z" transform="translate(-79.64 -78.96)"/><path class="cls-1" d="M242.82,346.81c0,19.72,34.34,71,34.34,71S222.26,431.36,166.67,398c-6.67-4,1-66.69,18.08-76.13C198.59,314.25,242.83,335.67,242.82,346.81Z" transform="translate(-79.64 -78.96)"/><path class="cls-1" d="M330.25,304.62c17.07,9.88,78.68,5.77,78.68,5.77s-15.74,54.31-72.43,85.78c-6.8,3.77-57.28-34.17-56.88-53.72C279.94,326.65,320.61,299,330.25,304.62Z" transform="translate(-79.64 -78.96)"/><path class="cls-1" d="M337.43,207.81c17.09-9.85,44.33-65.25,44.33-65.25s39.16,40.79,38.07,105.61c-0.13,7.77-58.23,32.52-75,22.4C331.35,262.4,327.77,213.37,337.43,207.81Z" transform="translate(-79.64 -78.96)"/></svg>